<?xml version="1.0" encoding="utf-8"?>
<!-- Generator: Adobe Illustrator 23.1.1, SVG Export Plug-In . SVG Version: 6.00 Build 0)  -->
<svg version="1.1" id="Ebene_1" xmlns="http://www.w3.org/2000/svg" xmlns:xlink="http://www.w3.org/1999/xlink" x="0px" y="0px"
	 viewBox="0 0 841.9 595.3" style="enable-background:new 0 0 841.9 595.3;" xml:space="preserve">
<path d="M371.9,200.1l43.8-76.9c2.4-4.3,6.4-4.3,8.9,0l10.4,18.3c2.4,4.3,2.4,11.3,0,15.5l-24.9,43.1c-2.5,4.3-8.5,7.7-13.4,7.7
	h-20.2C371.5,207.9,369.5,204.4,371.9,200.1z M434.1,207.9h29.7c4.9,0,7-3.5,4.5-7.8l-14.8-26c-2.4-4.3-6.4-4.3-8.9,0l-15,26
	C427.2,204.4,429.2,207.9,434.1,207.9z M435,272.6c2.5,4.3,2.5,11.2,0,15.5l-10.4,18.3c-1.2,2.1-2.8,3.2-4.4,3.2
	c-1.6,0-3.2-1.1-4.4-3.2l-43.8-76.9c-2.4-4.3-0.4-7.8,4.5-7.8h20.2c4.9,0,11,3.5,13.4,7.7L435,272.6z M468.4,229.5l-14.8,26
	c-1.2,2.1-2.8,3.2-4.5,3.2c-1.6,0-3.2-1.1-4.4-3.2l-15-26c-2.5-4.3-0.4-7.7,4.5-7.7h29.7C468.8,221.8,470.8,225.3,468.4,229.5z"/>
<g>
	<path d="M233.2,413.2H233c-0.5,1.3-1.2,2.5-2.2,3.7c-1,1.2-2.1,2.2-3.5,3.1c-1.4,0.9-2.9,1.6-4.7,2.1c-1.7,0.5-3.7,0.8-5.7,0.8
		c-4.6,0-8.2-1-10.7-3c-2.5-2-3.8-5.1-3.8-9.2c0-2.5,0.5-4.6,1.5-6.2c1-1.6,2.3-2.9,3.8-3.8c1.5-0.9,3.3-1.6,5.1-2
		c1.9-0.4,3.7-0.7,5.4-0.8l5-0.4c2.3-0.2,4.1-0.4,5.4-0.8c1.3-0.4,2.3-0.9,3-1.5c0.7-0.6,1.1-1.5,1.3-2.5s0.3-2.3,0.3-3.8
		c0-1.2-0.2-2.3-0.7-3.3c-0.5-1-1.2-1.9-2.1-2.7c-1-0.8-2.2-1.4-3.7-1.9c-1.5-0.4-3.4-0.7-5.6-0.7c-3.9,0-7,1-9.4,2.9
		c-2.4,1.9-3.7,4.8-3.9,8.7h-3.2c0.2-4.8,1.8-8.4,4.6-10.8c2.8-2.4,6.9-3.6,12.1-3.6c5.2,0,9,1,11.4,3.1c2.4,2.1,3.6,4.7,3.6,8.1
		v25.2c0,0.6,0,1.2,0,1.9c0,0.6,0.1,1.2,0.3,1.7c0.2,0.5,0.4,0.9,0.8,1.2c0.4,0.3,1,0.5,1.7,0.5c0.6,0,1.4-0.1,2.4-0.3v2.7
		c-0.8,0.2-1.7,0.3-2.6,0.3c-1.3,0-2.3-0.2-3.1-0.5c-0.8-0.3-1.3-0.8-1.7-1.4c-0.4-0.6-0.7-1.2-0.8-2c-0.1-0.8-0.2-1.6-0.2-2.5
		V413.2z M233.2,397.2c-0.8,1-2,1.6-3.6,1.9c-1.6,0.3-3.4,0.6-5.4,0.8l-5.4,0.5c-1.6,0.2-3.2,0.4-4.7,0.7c-1.6,0.3-3,0.8-4.3,1.6
		c-1.3,0.7-2.3,1.7-3.1,3c-0.8,1.3-1.2,2.9-1.2,4.9c0,3.2,1,5.6,3,7.1c2,1.5,4.8,2.3,8.4,2.3c3.7,0,6.6-0.7,8.7-2
		c2.1-1.3,3.8-2.8,4.9-4.6c1.1-1.7,1.8-3.4,2.2-5c0.3-1.6,0.5-2.7,0.5-3.2V397.2z"/>
	<path d="M279.4,381.2H270v30.3c0,1.7,0.2,3.1,0.6,4.1c0.4,1,1,1.8,1.8,2.3c0.8,0.5,1.8,0.9,3,1c1.2,0.1,2.5,0.1,4,0.1v2.8
		c-1.6,0.1-3.2,0.1-4.8,0c-1.5-0.1-2.9-0.6-4.1-1.3c-1.2-0.7-2.1-1.8-2.8-3.2c-0.7-1.4-1-3.3-0.9-5.8v-30.3h-8v-2.8h8v-13.5h3.2
		v13.5h9.5V381.2z"/>
	<path d="M305.4,361.6v26.2h0.2c0.6-1.6,1.4-3.1,2.4-4.3c1-1.3,2.2-2.3,3.6-3.2c1.4-0.9,2.9-1.6,4.5-2c1.6-0.5,3.3-0.7,5-0.7
		c2.5,0,4.7,0.3,6.5,0.9c1.8,0.6,3.2,1.4,4.3,2.4c1.1,1,2,2.2,2.7,3.4c0.6,1.3,1.1,2.5,1.4,3.8c0.3,1.3,0.4,2.5,0.5,3.8
		c0.1,1.2,0.1,2.3,0.1,3.2v26.8h-3.2v-27.4c0-1.1-0.1-2.4-0.3-4.1c-0.2-1.6-0.7-3.2-1.5-4.7c-0.8-1.5-2.1-2.8-3.7-3.8
		c-1.7-1.1-4-1.6-6.9-1.6c-2.5,0-4.7,0.5-6.6,1.3c-1.9,0.9-3.5,2.2-4.9,3.8c-1.4,1.6-2.4,3.5-3.1,5.7c-0.7,2.2-1.1,4.7-1.1,7.3v23.5
		h-3.2v-60.2H305.4z"/>
	<path d="M364,400.5v0.5c0,2.5,0.3,5,1,7.3c0.7,2.3,1.7,4.3,3,6.1c1.3,1.7,3,3.1,5,4.1c2,1,4.3,1.5,7,1.5c4.3,0,7.8-1.1,10.3-3.4
		s4.3-5.4,5.2-9.5h3.2c-1,5.1-3,8.9-6.2,11.6c-3.2,2.7-7.4,4.1-12.6,4.1c-3.2,0-6-0.6-8.4-1.7c-2.4-1.2-4.4-2.7-6-4.7
		c-1.6-2-2.8-4.4-3.6-7.1c-0.8-2.7-1.2-5.7-1.2-8.8c0-3,0.4-5.9,1.2-8.7c0.8-2.8,2-5.2,3.7-7.3c1.6-2.1,3.7-3.8,6.1-5.1
		c2.4-1.3,5.3-1.9,8.6-1.9c3,0,5.7,0.6,8.1,1.7c2.3,1.1,4.3,2.7,5.9,4.6c1.6,1.9,2.8,4.2,3.6,6.8c0.8,2.6,1.2,5.3,1.2,8.2
		c0,0.3,0,0.6,0,1c0,0.4,0,0.7,0,0.9H364z M395.9,397.8c-0.1-2.4-0.5-4.6-1.2-6.7c-0.7-2.1-1.7-4-3-5.6c-1.3-1.6-2.9-2.9-4.8-3.8
		c-1.9-1-4-1.4-6.5-1.4c-2.6,0-4.9,0.5-6.9,1.5c-2,1-3.6,2.3-5,3.9c-1.4,1.6-2.4,3.5-3.1,5.6c-0.7,2.1-1.2,4.3-1.4,6.6H395.9z"/>
	<path d="M426.7,388h0.3c0.4-1.4,1.1-2.7,2.2-4c1-1.2,2.3-2.3,3.8-3.2c1.5-0.9,3.1-1.6,5-2.1c1.8-0.5,3.7-0.7,5.7-0.6v3.2
		c-1.7-0.2-3.6-0.1-5.8,0.5c-2.2,0.6-4.2,1.8-6.2,3.7c-0.8,0.8-1.5,1.7-2.1,2.4c-0.6,0.8-1.1,1.7-1.5,2.6c-0.4,1-0.7,2-0.9,3.2
		c-0.2,1.2-0.4,2.6-0.4,4.2v23.7h-3.2v-43.4h3.2V388z"/>
	<path d="M464,400.5v0.5c0,2.5,0.3,5,1,7.3c0.7,2.3,1.7,4.3,3,6.1c1.3,1.7,3,3.1,5,4.1c2,1,4.3,1.5,7,1.5c4.3,0,7.8-1.1,10.3-3.4
		s4.3-5.4,5.2-9.5h3.2c-1,5.1-3,8.9-6.2,11.6c-3.2,2.7-7.4,4.1-12.6,4.1c-3.2,0-6-0.6-8.4-1.7c-2.4-1.2-4.4-2.7-6-4.7
		c-1.6-2-2.8-4.4-3.6-7.1c-0.8-2.7-1.2-5.7-1.2-8.8c0-3,0.4-5.9,1.2-8.7c0.8-2.8,2-5.2,3.7-7.3c1.6-2.1,3.7-3.8,6.1-5.1
		c2.4-1.3,5.3-1.9,8.6-1.9c3,0,5.7,0.6,8.1,1.7c2.3,1.1,4.3,2.7,5.9,4.6c1.6,1.9,2.8,4.2,3.6,6.8c0.8,2.6,1.2,5.3,1.2,8.2
		c0,0.3,0,0.6,0,1c0,0.4,0,0.7,0,0.9H464z M495.9,397.8c-0.1-2.4-0.5-4.6-1.2-6.7c-0.7-2.1-1.7-4-3-5.6c-1.3-1.6-2.9-2.9-4.8-3.8
		c-1.9-1-4-1.4-6.5-1.4c-2.6,0-4.9,0.5-6.9,1.5c-2,1-3.6,2.3-5,3.9c-1.4,1.6-2.4,3.5-3.1,5.6c-0.7,2.1-1.2,4.3-1.4,6.6H495.9z"/>
	<path d="M557.9,421.8h-3.2v-9.3h-0.2c-0.6,1.6-1.4,3.1-2.4,4.3s-2.2,2.3-3.6,3.2c-1.4,0.9-2.9,1.6-4.5,2c-1.6,0.4-3.3,0.7-5,0.7
		c-2.5,0-4.7-0.3-6.5-0.9c-1.8-0.6-3.2-1.4-4.3-2.4c-1.1-1-2-2.2-2.7-3.4c-0.6-1.3-1.1-2.5-1.4-3.8c-0.3-1.3-0.5-2.5-0.5-3.8
		c-0.1-1.2-0.1-2.3-0.1-3.2v-26.8h3.2v27.4c0,1.1,0.1,2.5,0.3,4.1c0.2,1.6,0.7,3.2,1.5,4.6c0.8,1.5,2,2.8,3.7,3.8
		c1.6,1.1,3.9,1.6,6.9,1.6c2.4,0,4.6-0.4,6.5-1.3c1.9-0.9,3.6-2.2,4.9-3.8c1.3-1.6,2.4-3.5,3.1-5.7c0.7-2.2,1.1-4.7,1.1-7.3v-23.5
		h3.2V421.8z"/>
	<path d="M584.3,378.4h3.2v8.9h0.2c0.3-1.4,0.9-2.6,1.8-3.8c0.8-1.2,1.9-2.3,3.1-3.2c1.2-0.9,2.6-1.6,4-2.1c1.5-0.5,3.1-0.8,4.7-0.8
		c2.1,0,3.9,0.3,5.4,0.8c1.5,0.5,2.8,1.2,3.9,2.1c1.1,0.9,1.9,1.9,2.5,3c0.6,1.1,1,2.2,1.3,3.3h0.2c1.3-3,3-5.3,5.2-6.9
		c2.2-1.5,5-2.3,8.6-2.3c2,0,3.8,0.3,5.4,0.9c1.7,0.6,3.1,1.5,4.3,2.7c1.2,1.2,2.2,2.7,2.8,4.6c0.7,1.9,1,4,1,6.6v29.6h-3.2v-29.7
		c0-2.8-0.4-4.9-1.3-6.5c-0.8-1.6-1.8-2.8-3-3.6c-1.2-0.8-2.3-1.3-3.5-1.5c-1.2-0.2-2-0.3-2.7-0.3c-2,0-3.8,0.3-5.4,1
		c-1.7,0.7-3.1,1.7-4.3,3c-1.2,1.4-2.2,3-2.8,5c-0.7,2-1,4.3-1,6.9v25.7h-3.2v-29.7c0-2.7-0.4-4.9-1.2-6.5c-0.8-1.6-1.8-2.8-2.9-3.6
		c-1.1-0.8-2.2-1.3-3.4-1.5c-1.2-0.2-2.1-0.3-2.7-0.3c-1.5,0-3.1,0.3-4.7,0.9c-1.6,0.6-3.1,1.6-4.5,2.9c-1.4,1.3-2.4,3-3.3,5
		s-1.3,4.4-1.3,7.2v25.7h-3.2V378.4z"/>
</g>
</svg>
